<svg xmlns="http://www.w3.org/2000/svg" viewBox="0 0 200 200" width="120" height="120">
  <defs>
    <radialGradient id="glow-outer" cx="50%" cy="50%" r="50%">
      <stop offset="0%" stop-color="#a8e6ff" stop-opacity="0.5"/>
      <stop offset="50%" stop-color="#5bc0f7" stop-opacity="0.15"/>
      <stop offset="100%" stop-color="#5bc0f7" stop-opacity="0"/>
    </radialGradient>
    <radialGradient id="glow-inner" cx="50%" cy="50%" r="50%">
      <stop offset="0%" stop-color="#d4f0ff" stop-opacity="0.6"/>
      <stop offset="70%" stop-color="#7ecef4" stop-opacity="0.2"/>
      <stop offset="100%" stop-color="#5bc0f7" stop-opacity="0"/>
    </radialGradient>
    <radialGradient id="core" cx="42%" cy="38%" r="55%">
      <stop offset="0%" stop-color="#ffffff"/>
      <stop offset="35%" stop-color="#d8f2ff"/>
      <stop offset="70%" stop-color="#7ecef4"/>
      <stop offset="100%" stop-color="#3a9fd8"/>
    </radialGradient>
    <linearGradient id="wingL" x1="0%" y1="20%" x2="80%" y2="100%">
      <stop offset="0%" stop-color="#e8f8ff" stop-opacity="0.95"/>
      <stop offset="50%" stop-color="#a8e6ff" stop-opacity="0.75"/>
      <stop offset="100%" stop-color="#5bc0f7" stop-opacity="0.4"/>
    </linearGradient>
    <linearGradient id="wingR" x1="100%" y1="20%" x2="20%" y2="100%">
      <stop offset="0%" stop-color="#e8f8ff" stop-opacity="0.95"/>
      <stop offset="50%" stop-color="#a8e6ff" stop-opacity="0.75"/>
      <stop offset="100%" stop-color="#5bc0f7" stop-opacity="0.4"/>
    </linearGradient>
    <filter id="softglow">
      <feGaussianBlur stdDeviation="8"/>
    </filter>
    <filter id="blur">
      <feGaussianBlur stdDeviation="3"/>
    </filter>
  </defs>

  <!-- 外层光晕 -->
  <circle cx="100" cy="100" r="95" fill="url(#glow-outer)" filter="url(#softglow)"/>
  <circle cx="100" cy="100" r="65" fill="url(#glow-inner)"/>

  <!-- 左上主翅膀 - 大弧度包裹身体 -->
  <path d="M82 90 Q58 50 18 22 Q10 28 14 42 Q20 62 38 80 Q56 94 82 98Z"
        fill="url(#wingL)" stroke="#80ccee" stroke-width="0.8"/>
  <path d="M80 92 Q52 58 22 30" fill="none" stroke="#b0e4ff" stroke-width="0.5" opacity="0.6"/>
  <path d="M78 94 Q56 72 36 58" fill="none" stroke="#b0e4ff" stroke-width="0.4" opacity="0.4"/>
  <path d="M76 96 Q60 82 48 74" fill="none" stroke="#b0e4ff" stroke-width="0.3" opacity="0.3"/>

  <!-- 左下翅膀 -->
  <path d="M82 110 Q56 126 24 162 Q20 170 30 164 Q50 146 68 128 Q80 114 83 110Z"
        fill="url(#wingL)" stroke="#80ccee" stroke-width="0.6" opacity="0.85"/>
  <path d="M80 112 Q54 134 30 158" fill="none" stroke="#b0e4ff" stroke-width="0.4" opacity="0.4"/>
  <path d="M78 114 Q58 132 44 146" fill="none" stroke="#b0e4ff" stroke-width="0.3" opacity="0.3"/>

  <!-- 右上主翅膀 -->
  <path d="M118 90 Q142 50 182 22 Q190 28 186 42 Q180 62 162 80 Q144 94 118 98Z"
        fill="url(#wingR)" stroke="#80ccee" stroke-width="0.8"/>
  <path d="M120 92 Q148 58 178 30" fill="none" stroke="#b0e4ff" stroke-width="0.5" opacity="0.6"/>
  <path d="M122 94 Q144 72 164 58" fill="none" stroke="#b0e4ff" stroke-width="0.4" opacity="0.4"/>
  <path d="M124 96 Q140 82 152 74" fill="none" stroke="#b0e4ff" stroke-width="0.3" opacity="0.3"/>

  <!-- 右下翅膀 -->
  <path d="M118 110 Q144 126 176 162 Q180 170 170 164 Q150 146 132 128 Q120 114 117 110Z"
        fill="url(#wingR)" stroke="#80ccee" stroke-width="0.6" opacity="0.85"/>
  <path d="M120 112 Q146 134 170 158" fill="none" stroke="#b0e4ff" stroke-width="0.4" opacity="0.4"/>
  <path d="M122 114 Q142 132 156 146" fill="none" stroke="#b0e4ff" stroke-width="0.3" opacity="0.3"/>

  <!-- 光球模糊层 -->
  <circle cx="100" cy="100" r="20" fill="url(#core)" filter="url(#blur)"/>
  <!-- 光球实体 -->
  <circle cx="100" cy="100" r="16" fill="url(#core)"/>

  <!-- 高光 -->
  <ellipse cx="93" cy="93" rx="6" ry="4.5" fill="#ffffff" opacity="0.85" transform="rotate(-20 93 93)"/>
  <circle cx="104" cy="89" r="2.2" fill="#ffffff" opacity="0.55"/>
</svg>
